<?xml version="1.0" encoding="UTF-8"?>
<!--Generator: Apple Native CoreSVG 175.5-->
<!DOCTYPE svg
PUBLIC "-//W3C//DTD SVG 1.1//EN"
       "http://www.w3.org/Graphics/SVG/1.1/DTD/svg11.dtd">
<svg version="1.1" xmlns="http://www.w3.org/2000/svg" xmlns:xlink="http://www.w3.org/1999/xlink" width="3300" height="2200">
 <!--glyph: "uni1004D0.medium", point size: 100.0, font version: "18.0d12e2", template writer version: "101"-->
 <style>.monochrome-0 {fill:#000000}

.SFSymbolsPreview000000 {fill:#000000;opacity:1.0}
</style>
 <g id="Notes">
  <rect height="2200" id="artboard" style="fill:white;opacity:1" width="3300" x="0" y="0"/>
  <line style="fill:none;stroke:black;opacity:1;stroke-width:0.5;" x1="263" x2="3036" y1="292" y2="292"/>
  <text style="stroke:none;fill:black;font-family:sans-serif;font-size:13;font-weight:bold;" transform="matrix(1 0 0 1 263 322)">Weight/Scale Variations</text>
  <text style="stroke:none;fill:black;font-family:sans-serif;font-size:13;text-anchor:middle;" transform="matrix(1 0 0 1 559.711 322)">Ultralight</text>
  <text style="stroke:none;fill:black;font-family:sans-serif;font-size:13;text-anchor:middle;" transform="matrix(1 0 0 1 856.422 322)">Thin</text>
  <text style="stroke:none;fill:black;font-family:sans-serif;font-size:13;text-anchor:middle;" transform="matrix(1 0 0 1 1153.13 322)">Light</text>
  <text style="stroke:none;fill:black;font-family:sans-serif;font-size:13;text-anchor:middle;" transform="matrix(1 0 0 1 1449.84 322)">Regular</text>
  <text style="stroke:none;fill:black;font-family:sans-serif;font-size:13;text-anchor:middle;" transform="matrix(1 0 0 1 1746.56 322)">Medium</text>
  <text style="stroke:none;fill:black;font-family:sans-serif;font-size:13;text-anchor:middle;" transform="matrix(1 0 0 1 2043.27 322)">Semibold</text>
  <text style="stroke:none;fill:black;font-family:sans-serif;font-size:13;text-anchor:middle;" transform="matrix(1 0 0 1 2339.98 322)">Bold</text>
  <text style="stroke:none;fill:black;font-family:sans-serif;font-size:13;text-anchor:middle;" transform="matrix(1 0 0 1 2636.69 322)">Heavy</text>
  <text style="stroke:none;fill:black;font-family:sans-serif;font-size:13;text-anchor:middle;" transform="matrix(1 0 0 1 2933.4 322)">Black</text>
  <line style="fill:none;stroke:black;opacity:1;stroke-width:0.5;" x1="263" x2="3036" y1="1903" y2="1903"/>
  <g transform="matrix(1 0 0 1 263 1933)">
   <path d="M9.24805 0.830078C13.5547 0.830078 17.1387-2.74414 17.1387-7.05078C17.1387-11.3574 13.5449-14.9316 9.23828-14.9316C4.94141-14.9316 1.36719-11.3574 1.36719-7.05078C1.36719-2.74414 4.95117 0.830078 9.24805 0.830078ZM9.24805-0.654297C5.70312-0.654297 2.87109-3.49609 2.87109-7.05078C2.87109-10.6055 5.69336-13.4473 9.23828-13.4473C12.793-13.4473 15.6445-10.6055 15.6445-7.05078C15.6445-3.49609 12.8027-0.654297 9.24805-0.654297ZM5.6543-7.05078C5.6543-6.62109 5.95703-6.32812 6.40625-6.32812L8.50586-6.32812L8.50586-4.20898C8.50586-3.76953 8.79883-3.4668 9.22852-3.4668C9.67773-3.4668 9.9707-3.76953 9.9707-4.20898L9.9707-6.32812L12.0898-6.32812C12.5293-6.32812 12.832-6.62109 12.832-7.05078C12.832-7.49023 12.5293-7.79297 12.0898-7.79297L9.9707-7.79297L9.9707-9.90234C9.9707-10.3516 9.67773-10.6543 9.22852-10.6543C8.79883-10.6543 8.50586-10.3516 8.50586-9.90234L8.50586-7.79297L6.40625-7.79297C5.95703-7.79297 5.6543-7.49023 5.6543-7.05078Z"/>
  </g>
  <g transform="matrix(1 0 0 1 281.867 1933)">
   <path d="M11.709 2.91016C17.1582 2.91016 21.6699-1.61133 21.6699-7.05078C21.6699-12.5 17.1484-17.0117 11.6992-17.0117C6.25977-17.0117 1.74805-12.5 1.74805-7.05078C1.74805-1.61133 6.26953 2.91016 11.709 2.91016ZM11.709 1.25C7.09961 1.25 3.41797-2.44141 3.41797-7.05078C3.41797-11.6602 7.08984-15.3516 11.6992-15.3516C16.3086-15.3516 20.0098-11.6602 20.0098-7.05078C20.0098-2.44141 16.3184 1.25 11.709 1.25ZM7.17773-7.05078C7.17773-6.57227 7.50977-6.25 8.00781-6.25L10.8789-6.25L10.8789-3.36914C10.8789-2.88086 11.2109-2.53906 11.6895-2.53906C12.1777-2.53906 12.5195-2.87109 12.5195-3.36914L12.5195-6.25L15.4004-6.25C15.8887-6.25 16.2305-6.57227 16.2305-7.05078C16.2305-7.53906 15.8887-7.88086 15.4004-7.88086L12.5195-7.88086L12.5195-10.752C12.5195-11.25 12.1777-11.5918 11.6895-11.5918C11.2109-11.5918 10.8789-11.25 10.8789-10.752L10.8789-7.88086L8.00781-7.88086C7.50977-7.88086 7.17773-7.53906 7.17773-7.05078Z"/>
  </g>
  <g transform="matrix(1 0 0 1 305.646 1933)">
   <path d="M14.9707 5.66406C21.9336 5.66406 27.6953-0.0976562 27.6953-7.05078C27.6953-14.0137 21.9238-19.7754 14.9609-19.7754C8.00781-19.7754 2.25586-14.0137 2.25586-7.05078C2.25586-0.0976562 8.01758 5.66406 14.9707 5.66406ZM14.9707 3.84766C8.93555 3.84766 4.08203-1.01562 4.08203-7.05078C4.08203-13.0957 8.92578-17.9492 14.9609-17.9492C21.0059-17.9492 25.8691-13.0957 25.8691-7.05078C25.8691-1.01562 21.0156 3.84766 14.9707 3.84766ZM9.19922-7.05078C9.19922-6.5332 9.57031-6.17188 10.1172-6.17188L14.0625-6.17188L14.0625-2.2168C14.0625-1.67969 14.4336-1.29883 14.9512-1.29883C15.4883-1.29883 15.8594-1.66992 15.8594-2.2168L15.8594-6.17188L19.8145-6.17188C20.3516-6.17188 20.7324-6.5332 20.7324-7.05078C20.7324-7.59766 20.3613-7.96875 19.8145-7.96875L15.8594-7.96875L15.8594-11.9141C15.8594-12.4609 15.4883-12.8418 14.9512-12.8418C14.4336-12.8418 14.0625-12.4609 14.0625-11.9141L14.0625-7.96875L10.1172-7.96875C9.57031-7.96875 9.19922-7.59766 9.19922-7.05078Z"/>
  </g>
  <text style="stroke:none;fill:black;font-family:sans-serif;font-size:13;font-weight:bold;" transform="matrix(1 0 0 1 263 1953)">Design Variations</text>
  <text style="stroke:none;fill:black;font-family:sans-serif;font-size:13;" transform="matrix(1 0 0 1 263 1971)">Symbols are supported in up to nine weights and three scales.</text>
  <text style="stroke:none;fill:black;font-family:sans-serif;font-size:13;" transform="matrix(1 0 0 1 263 1989)">For optimal layout with text and other symbols, vertically align</text>
  <text style="stroke:none;fill:black;font-family:sans-serif;font-size:13;" transform="matrix(1 0 0 1 263 2007)">symbols with the adjacent text.</text>
  <line style="fill:none;stroke:#00AEEF;stroke-width:0.5;opacity:1.0;" x1="776" x2="776" y1="1919" y2="1933"/>
  <g transform="matrix(1 0 0 1 776 1933)">
   <path d="M3.31055 0.15625C3.82812 0.15625 4.08203-0.0390625 4.26758-0.585938L5.52734-4.0332L11.2891-4.0332L12.5488-0.585938C12.7344-0.0390625 12.9883 0.15625 13.4961 0.15625C14.0137 0.15625 14.3457-0.15625 14.3457-0.644531C14.3457-0.810547 14.3164-0.966797 14.2383-1.17188L9.6582-13.3691C9.43359-13.9648 9.0332-14.2676 8.4082-14.2676C7.80273-14.2676 7.39258-13.9746 7.17773-13.3789L2.59766-1.16211C2.51953-0.957031 2.49023-0.800781 2.49023-0.634766C2.49023-0.146484 2.80273 0.15625 3.31055 0.15625ZM6.00586-5.51758L8.37891-12.0898L8.42773-12.0898L10.8008-5.51758Z"/>
  </g>
  <line style="fill:none;stroke:#00AEEF;stroke-width:0.5;opacity:1.0;" x1="793.197" x2="793.197" y1="1919" y2="1933"/>
  <text style="stroke:none;fill:black;font-family:sans-serif;font-size:13;font-weight:bold;" transform="matrix(1 0 0 1 776 1953)">Margins</text>
  <text style="stroke:none;fill:black;font-family:sans-serif;font-size:13;" transform="matrix(1 0 0 1 776 1971)">Leading and trailing margins on the left and right side of each symbol</text>
  <text style="stroke:none;fill:black;font-family:sans-serif;font-size:13;" transform="matrix(1 0 0 1 776 1989)">can be adjusted by modifying the x-location of the margin guidelines.</text>
  <text style="stroke:none;fill:black;font-family:sans-serif;font-size:13;" transform="matrix(1 0 0 1 776 2007)">Modifications are automatically applied proportionally to all</text>
  <text style="stroke:none;fill:black;font-family:sans-serif;font-size:13;" transform="matrix(1 0 0 1 776 2025)">scales and weights.</text>
  <g transform="matrix(1 0 0 1 1289 1933)">
   <path d="M2.8418 1.86523L4.54102 3.57422C5.40039 4.44336 6.38672 4.38477 7.31445 3.35938L18.0078-8.42773L17.041-9.4043L6.42578 2.27539C6.07422 2.67578 5.74219 2.77344 5.27344 2.30469L4.10156 1.14258C3.63281 0.683594 3.74023 0.341797 4.14062-0.0195312L15.6152-10.8203L14.6387-11.7871L3.04688-0.898438C2.06055 0.0195312 1.98242 0.996094 2.8418 1.86523ZM9.25781-16.3281C8.83789-15.918 8.80859-15.3418 9.04297-14.9512C9.27734-14.5898 9.73633-14.3555 10.3809-14.5215C11.8457-14.8633 13.3691-14.9219 14.7949-13.9844L14.209-12.5293C13.8672-11.6992 14.043-11.1133 14.5801-10.5664L16.875-8.25195C17.3633-7.76367 17.7734-7.74414 18.3398-7.8418L19.4043-8.03711L20.0684-7.36328L20.0293-6.80664C19.9902-6.30859 20.1172-5.92773 20.6055-5.44922L21.3672-4.70703C21.8457-4.22852 22.4609-4.19922 22.9297-4.66797L25.8398-7.58789C26.3086-8.05664 26.2891-8.65234 25.8105-9.13086L25.0391-9.89258C24.5605-10.3711 24.1895-10.5273 23.7109-10.4883L23.1348-10.4395L22.4902-11.0742L22.7344-12.1973C22.8613-12.7637 22.7051-13.2031 22.1191-13.7891L19.9219-15.9766C16.582-19.2969 12.1484-19.2188 9.25781-16.3281ZM10.752-15.957C13.1836-17.7344 16.4746-17.4316 18.7012-15.2051L21.1328-12.793C21.3672-12.5586 21.4062-12.373 21.3379-12.0312L21.0156-10.5469L22.5195-9.0625L23.5059-9.12109C23.7598-9.13086 23.8379-9.11133 24.0332-8.91602L24.6094-8.33984L22.168-5.89844L21.5918-6.47461C21.3965-6.66992 21.3672-6.74805 21.377-7.01172L21.4453-7.98828L19.9512-9.47266L18.4277-9.21875C18.1055-9.15039 17.959-9.17969 17.7148-9.41406L15.7129-11.416C15.459-11.6504 15.4297-11.8164 15.5859-12.1875L16.4648-14.2773C14.9023-15.7324 12.8711-16.3574 10.8398-15.7617C10.6836-15.7227 10.625-15.8496 10.752-15.957Z"/>
  </g>
  <text style="stroke:none;fill:black;font-family:sans-serif;font-size:13;font-weight:bold;" transform="matrix(1 0 0 1 1289 1953)">Exporting</text>
  <text style="stroke:none;fill:black;font-family:sans-serif;font-size:13;" transform="matrix(1 0 0 1 1289 1971)">Symbols should be outlined when exporting to ensure the</text>
  <text style="stroke:none;fill:black;font-family:sans-serif;font-size:13;" transform="matrix(1 0 0 1 1289 1989)">design is preserved when submitting to Xcode.</text>
  <text id="template-version" style="stroke:none;fill:black;font-family:sans-serif;font-size:13;text-anchor:end;" transform="matrix(1 0 0 1 3036 1933)">Template v.4.0</text>
  <text style="stroke:none;fill:black;font-family:sans-serif;font-size:13;text-anchor:end;" transform="matrix(1 0 0 1 3036 1951)">Requires Xcode 14 or greater</text>
  <text id="descriptive-name" style="stroke:none;fill:black;font-family:sans-serif;font-size:13;text-anchor:end;" transform="matrix(1 0 0 1 3036 1969)">Generated from tortoise</text>
  <text style="stroke:none;fill:black;font-family:sans-serif;font-size:13;text-anchor:end;" transform="matrix(1 0 0 1 3036 1987)">Typeset at 100 points</text>
  <text style="stroke:none;fill:black;font-family:sans-serif;font-size:13;" transform="matrix(1 0 0 1 263 726)">Small</text>
  <text style="stroke:none;fill:black;font-family:sans-serif;font-size:13;" transform="matrix(1 0 0 1 263 1156)">Medium</text>
  <text style="stroke:none;fill:black;font-family:sans-serif;font-size:13;" transform="matrix(1 0 0 1 263 1586)">Large</text>
 </g>
 <g id="Guides">
  <g id="H-reference" style="fill:#27AAE1;stroke:none;" transform="matrix(1 0 0 1 339 696)">
   <path d="M0.993654 0L3.63775 0L29.3281-67.1323L30.0303-67.1323L30.0303-70.459L28.1226-70.459ZM11.6885-24.4799L46.9815-24.4799L46.2315-26.7285L12.4385-26.7285ZM55.1196 0L57.7637 0L30.6382-70.459L29.4326-70.459L29.4326-67.1323Z"/>
  </g>
  <line id="Baseline-S" style="fill:none;stroke:#27AAE1;opacity:1;stroke-width:0.5;" x1="263" x2="3036" y1="696" y2="696"/>
  <line id="Capline-S" style="fill:none;stroke:#27AAE1;opacity:1;stroke-width:0.5;" x1="263" x2="3036" y1="625.541" y2="625.541"/>
  <g id="H-reference" style="fill:#27AAE1;stroke:none;" transform="matrix(1 0 0 1 339 1126)">
   <path d="M0.993654 0L3.63775 0L29.3281-67.1323L30.0303-67.1323L30.0303-70.459L28.1226-70.459ZM11.6885-24.4799L46.9815-24.4799L46.2315-26.7285L12.4385-26.7285ZM55.1196 0L57.7637 0L30.6382-70.459L29.4326-70.459L29.4326-67.1323Z"/>
  </g>
  <line id="Baseline-M" style="fill:none;stroke:#27AAE1;opacity:1;stroke-width:0.5;" x1="263" x2="3036" y1="1126" y2="1126"/>
  <line id="Capline-M" style="fill:none;stroke:#27AAE1;opacity:1;stroke-width:0.5;" x1="263" x2="3036" y1="1055.54" y2="1055.54"/>
  <g id="H-reference" style="fill:#27AAE1;stroke:none;" transform="matrix(1 0 0 1 339 1556)">
   <path d="M0.993654 0L3.63775 0L29.3281-67.1323L30.0303-67.1323L30.0303-70.459L28.1226-70.459ZM11.6885-24.4799L46.9815-24.4799L46.2315-26.7285L12.4385-26.7285ZM55.1196 0L57.7637 0L30.6382-70.459L29.4326-70.459L29.4326-67.1323Z"/>
  </g>
  <line id="Baseline-L" style="fill:none;stroke:#27AAE1;opacity:1;stroke-width:0.5;" x1="263" x2="3036" y1="1556" y2="1556"/>
  <line id="Capline-L" style="fill:none;stroke:#27AAE1;opacity:1;stroke-width:0.5;" x1="263" x2="3036" y1="1485.54" y2="1485.54"/>
  <line id="left-margin-Ultralight-S" style="fill:none;stroke:#00AEEF;stroke-width:0.5;opacity:1.0;" x1="486.998" x2="486.998" y1="600.785" y2="720.121"/>
  <line id="right-margin-Ultralight-S" style="fill:none;stroke:#00AEEF;stroke-width:0.5;opacity:1.0;" x1="632.424" x2="632.424" y1="600.785" y2="720.121"/>
  <line id="left-margin-Regular-S" style="fill:none;stroke:#00AEEF;stroke-width:0.5;opacity:1.0;" x1="1375.41" x2="1375.41" y1="600.785" y2="720.121"/>
  <line id="right-margin-Regular-S" style="fill:none;stroke:#00AEEF;stroke-width:0.5;opacity:1.0;" x1="1524.28" x2="1524.28" y1="600.785" y2="720.121"/>
  <line id="left-margin-Black-S" style="fill:none;stroke:#00AEEF;stroke-width:0.5;opacity:1.0;" x1="2856.42" x2="2856.42" y1="600.785" y2="720.121"/>
  <line id="right-margin-Black-S" style="fill:none;stroke:#00AEEF;stroke-width:0.5;opacity:1.0;" x1="3010.38" x2="3010.38" y1="600.785" y2="720.121"/>
 </g>
 <g id="Symbols">
  <g id="Black-S" transform="matrix(1 0 0 1 2856.42 696)">
   <path class="monochrome-0 SFSymbolsPreview000000" d="M59.9121 1.07422C78.1738 1.07422 88.4766-8.64258 92.627-9.61914C100.732-11.5723 112.5-18.7012 122.803-18.7012C135.84-18.7012 144.189-23.7305 144.189-31.9824C144.189-47.8516 135.352-58.5938 122.314-58.5938C111.279-58.5938 103.711-52.2949 101.172-41.0645C100.635-38.623 99.707-36.8164 98.3398-35.4492L97.5098-36.9629C86.6211-56.8359 76.3184-64.7461 59.9121-64.7949C43.5059-64.7461 33.0078-56.9336 22.3145-36.9629C16.5039-26.123 9.76562-25.0488 9.76562-18.0664C9.76562-12.8418 14.0137-9.61914 20.8008-9.61914C22.1191-9.61914 23.4863-9.61914 24.8047-9.61914C31.4453-9.61914 42.041 1.07422 59.9121 1.07422ZM59.9121-11.0352C46.5332-11.0352 34.2285-21.4844 29.248-21.4844C28.5156-21.4844 27.8809-21.4844 26.3184-21.4844L26.3184-22.168C28.7109-24.4141 30.2734-26.2695 32.4219-30.6641C40.918-46.9238 47.998-52.6367 59.9121-52.6855C71.8262-52.6367 78.9062-46.9238 87.4023-30.6641C90.0391-25.5859 91.0156-23.7793 93.5059-21.8262C92.8223-21.8262 92.041-21.6797 91.1621-21.4355C84.2773-19.5312 72.7539-11.0352 59.9121-11.0352ZM106.543-23.7305C105.713-24.6094 105.322-25 104.541-26.416C108.643-27.6855 110.84-31.2988 111.865-36.377C113.232-43.5547 116.65-46.875 122.314-46.875C128.271-46.875 132.812-41.1133 132.812-33.2031C132.812-31.9824 128.516-30.1758 124.268-30.1758C115.479-30.1758 110.693-27.3926 106.543-23.7305ZM59.5703-30.2246C72.998-30.2246 82.959-36.5234 88.7695-42.7734L84.9121-50.5371C78.1738-42.9688 69.3359-38.916 59.5703-38.916C49.5605-38.916 40.6738-43.0176 34.2285-50.5859L30.3711-42.7734C36.1816-36.5234 46.1426-30.2246 59.5703-30.2246ZM23.584 5.46875C32.4219 5.46875 41.2109 1.61133 47.6562-5.17578L39.9414-9.08203C33.8867-4.24805 29.0527-2.05078 24.4141-2.05078C22.0215-2.05078 20.6543-2.83203 20.6543-4.00391C20.6543-4.83398 21.3867-5.37109 23.0469-5.85938C24.8535-6.39648 32.373-8.59375 35.5469-10.791L28.9551-13.5254C27.3438-12.793 25.3418-12.3535 23.3398-11.8652C17.8223-10.498 11.7188-9.08203 11.7188-2.68555C11.7188 2.24609 16.4062 5.46875 23.584 5.46875ZM95.2148 5.46875C102.393 5.46875 107.08 2.24609 107.08-2.68555C107.08-9.08203 100.977-10.498 95.459-11.8652C93.457-12.3535 91.4551-12.793 89.8438-13.5254L83.252-10.791C86.4258-8.59375 93.9453-6.34766 95.752-5.85938C97.4121-5.41992 98.1445-4.83398 98.1445-4.00391C98.1445-2.83203 96.7773-2.05078 94.3848-2.05078C89.7461-2.05078 84.9121-4.24805 78.8574-9.08203L71.1426-5.17578C77.7832 1.41602 86.4746 5.46875 95.2148 5.46875ZM75.0977-10.9375L82.959-14.2578C78.5156-18.2617 73.9746-29.541 73.877-34.6191L66.1621-32.3242C66.3086-25.7324 70.6055-15.3809 75.0977-10.9375ZM44.7266-10.9375C49.1211-15.2832 53.3691-25.6348 53.6621-32.3242L45.9473-34.6191C45.8496-29.541 41.3086-18.2617 36.8652-14.2578ZM122.9-35.4004C125.049-35.4004 126.807-37.1582 126.807-39.3066C126.807-41.4551 125.049-43.2129 122.9-43.2129C120.752-43.2129 118.994-41.4551 118.994-39.3066C118.994-37.1582 120.752-35.4004 122.9-35.4004Z"/>
  </g>
  <g id="Regular-S" transform="matrix(1 0 0 1 1375.41 696)">
   <path class="monochrome-0 SFSymbolsPreview000000" d="M57.3242-1.5625C72.6074-1.5625 73.0957-12.207 90.332-12.207C109.521-12.207 108.594-21.2402 120.361-21.2402C131.055-21.2402 139.111-24.9023 139.111-32.0801C139.111-48.1445 129.932-56.0059 119.824-56.0059C109.131-56.0059 103.271-49.5117 101.221-40.4785C100.098-35.9375 97.9492-33.3008 94.9707-31.6406L92.7246-35.7422C82.5684-54.4434 73.0957-62.1582 57.4219-62.207C40.7227-62.1582 32.2754-54.8828 19.6777-31.2988C16.0156-24.3164 9.76562-23.0469 9.76562-18.0176C9.76562-14.5508 12.5-12.207 18.0176-12.207C19.3848-12.207 20.8496-12.207 22.2656-12.207C40.8691-12.207 43.9941-1.5625 57.3242-1.5625ZM57.3242-8.54492C45.7031-8.54492 42.4316-19.2383 23.7793-19.2383C21.9238-19.2383 20.0684-19.1895 18.6035-19.043L18.2617-19.5801C20.8984-21.875 23.9746-24.707 25.9277-28.5645C36.5234-48.877 43.457-55.2246 57.4219-55.2734C72.9004-55.2246 79.7363-44.873 87.1582-31.8848C89.9414-27.002 93.1641-22.0703 96.0938-19.0918C94.6777-19.1895 92.8711-19.2383 91.0645-19.2383C71.7773-19.2383 69.3359-8.54492 57.3242-8.54492ZM103.223-20.9961C101.709-22.168 99.8535-24.4141 98.7305-26.416C102.49-27.832 105.518-30.5664 106.885-37.0117C108.545-45.2148 112.891-49.4629 119.824-49.4629C126.758-49.4629 132.861-43.0664 132.861-33.2031C132.861-29.9316 127.295-27.5879 121.777-27.5879C112.646-27.5879 108.398-24.4629 103.223-20.9961ZM57.0801-30.7617C70.0684-30.7617 79.6875-36.6699 85.5957-42.8223L82.4219-47.6074C75.7812-40.3809 66.9434-36.3281 57.0801-36.3281C47.168-36.3281 38.3789-40.2344 31.6895-47.6074L28.5645-42.7734C34.375-36.7188 43.9941-30.7617 57.0801-30.7617ZM21.0938 3.36914C29.248 3.36914 37.4512 0 44.0918-6.73828L38.623-10.3027C31.6895-4.73633 26.2207-2.44141 21.1914-2.44141C17.9688-2.44141 16.3574-3.56445 16.3574-5.17578C16.3574-6.34766 17.334-7.22656 19.6289-7.8125C21.582-8.39844 28.7109-10.498 32.4707-12.6953L26.709-14.502C23.3887-13.0859 18.8477-12.5488 15.3809-11.1328C12.1582-9.86328 9.91211-7.95898 9.91211-4.19922C9.91211 0.732422 14.8438 3.36914 21.0938 3.36914ZM92.2852 3.36914C98.5352 3.36914 103.516 0.78125 103.516-4.19922C103.516-8.83789 100.049-10.6934 95.8008-11.9141C92.7246-12.793 89.3555-13.3301 86.6699-14.4531L80.957-12.6465C84.7168-10.498 91.7969-8.34961 93.7988-7.8125C96.0938-7.17773 97.0215-6.34766 97.0215-5.12695C97.0215-3.51562 95.4102-2.39258 92.1875-2.39258C87.1582-2.39258 81.6895-4.6875 74.8047-10.3027L69.3359-6.73828C75.7812-0.195312 84.1309 3.36914 92.2852 3.36914ZM74.9023-12.0117L79.7363-14.3066C75.3906-18.75 71.3867-28.6133 70.9473-34.0332L66.2598-32.6172C66.6016-26.1719 70.459-16.6992 74.9023-12.0117ZM39.8926-12.0117C44.0918-16.5527 47.9492-26.0742 48.5352-32.5195L43.8477-34.0332C43.4082-28.6621 39.4043-18.7012 35.1074-14.3066ZM120.996-35.4492C122.949-35.4492 124.609-37.1094 124.609-39.0625C124.609-41.0645 122.949-42.6758 120.996-42.6758C118.994-42.6758 117.383-41.0645 117.383-39.0625C117.383-37.1094 118.994-35.4492 120.996-35.4492Z"/>
  </g>
  <g id="Ultralight-S" transform="matrix(1 0 0 1 486.998 696)">
   <path class="monochrome-0 SFSymbolsPreview000000" d="M54.5088-5.2861C74.6963-5.2861 81.5873-14.5683 92.8296-14.5683C105.616-14.5683 106.187-23.1474 120.634-23.1474C129.42-23.1474 135.66-26.4463 135.66-33.397C135.66-44.7842 128.842-53.8262 118.734-53.8262C109.54-53.8262 105.224-47.105 102.492-39.979C100.37-34.5752 97.9492-30.4854 92.8819-28.5982L89.6367-34.5615C79.6167-52.9902 70.7798-59.7969 56.8315-59.8003C40.6772-59.7969 32.1392-52.8394 20.7676-30.1636C16.6514-22.0459 9.76562-19.2779 9.76562-17.291C9.76562-15.5044 10.729-14.5683 12.5684-14.5683C14.5713-14.5683 17.3531-14.5683 20.2676-14.5683C34.0577-14.5683 38.9991-5.2861 54.5088-5.2861ZM54.5088-7.45509C39.5728-7.45509 34.712-16.877 20.4644-16.877C18.0186-16.877 15.4366-16.8736 12.2916-16.8633L12.2676-17.355C14.6773-19.1958 18.6617-21.4829 22.5674-29.291C33.6172-51.1929 41.3682-57.5859 56.8315-57.5893C73.082-57.5859 81.0986-46.3716 87.7031-33.6557C89.7144-29.8174 93.6636-22.4336 99-17.457C96.7666-16.8736 94.9599-16.877 93.1079-16.877C80.5414-16.877 73.6499-7.45509 54.5088-7.45509ZM101.088-18.2715C98.3487-20.3516 95.4942-24.0508 93.917-26.8701C99.9019-29.0127 101.522-32.2012 104.523-39.2368C107.092-45.3965 110.62-51.7334 118.734-51.7334C127.53-51.7334 133.588-43.3389 133.588-33.2031C133.588-27.8882 127.704-25.2266 120.688-25.2266C109.15-25.2266 104.629-19.8765 101.088-18.2715ZM55.9448-31.897C67.2984-31.897 76.1909-36.0796 84.0518-42.5952L82.7852-43.9746C75.4634-37.8833 67.3066-33.9214 55.9448-33.9214C44.625-33.9214 36.7442-37.9185 29.6006-43.9746L28.4282-42.2739C34.6475-36.855 43.2676-31.897 55.9448-31.897ZM20.5942 0.553733C26.6597 0.553733 33.9092-3.63278 38.0523-10.5073L35.9893-11.438C32.0981-5.28125 25.7212-1.62403 20.5103-1.62403C16.4702-1.62403 14.2686-2.47462 14.2686-5.13037C14.2686-7.43749 15.563-8.72509 21.3091-9.90135C24.352-10.5327 28.4839-12.269 29.5645-13.331L29.3428-15.1377C26.3403-13.3584 23.3432-12.2764 20.0581-11.4961C14.6557-10.272 12.0918-8.5039 12.0918-5.10741C12.0918-1.6743 15.2524 0.553733 20.5942 0.553733ZM92.5122 1.00783C97.854 1.00783 101.018-1.21678 101.018-4.65332C101.018-8.11133 98.4141-9.92139 92.94-11.0967C89.6822-11.794 86.7217-12.9214 83.7637-14.6802L83.5454-12.8735C84.626-11.8149 88.7544-10.1206 91.8008-9.44725C97.5469-8.17675 98.8379-6.93798 98.8379-4.67286C98.8379-2.0171 96.6362-1.1211 92.5962-1.1211C87.3853-1.1211 81.0083-4.82373 77.1206-10.9385L75.0576-10.0532C79.187-3.14695 86.4468 1.00783 92.5122 1.00783ZM78.2173-12.1934L80.5083-12.9443C73.3926-20.7026 71.2959-25.8433 70.4478-34.8506L68.1216-34.7969C69.0537-25.3999 71.5942-19.6509 78.2173-12.1934ZM34.1709-11.9209C40.8223-20.1855 43.1812-25.9834 44.4483-33.791L42.5762-34.8506C41.3194-26.7549 38.4053-19.6548 32.2466-12.8989ZM121.496-36.5391C122.995-36.5391 124.246-37.7451 124.246-39.2441C124.246-40.7466 122.995-41.9946 121.496-41.9946C119.993-41.9946 118.791-40.7466 118.791-39.2441C118.791-37.7451 119.993-36.5391 121.496-36.5391Z"/>
  </g>
 </g>
</svg>
